<?xml version="1.0" encoding="utf-8"?>
<!-- Generator: Adobe Illustrator 24.3.0, SVG Export Plug-In . SVG Version: 6.00 Build 0)  -->
<svg version="1.1" id="Ebene_1" xmlns="http://www.w3.org/2000/svg" xmlns:xlink="http://www.w3.org/1999/xlink" x="0px" y="0px"
	 viewBox="0 0 1920 4302.2" style="enable-background:new 0 0 1920 4302.2;" xml:space="preserve">
<style type="text/css">
	.st0{opacity:0.55;fill:url(#SVGID_1_);enable-background:new    ;}
	.st1{opacity:0.55;fill:url(#SVGID_2_);enable-background:new    ;}
	.st2{opacity:0.55;enable-background:new    ;}
	.st3{opacity:0.55;fill:url(#SVGID_3_);enable-background:new    ;}
	.st4{opacity:0.55;fill:url(#SVGID_4_);enable-background:new    ;}
	.st5{opacity:0.55;fill:url(#SVGID_5_);enable-background:new    ;}
	.st6{opacity:0.55;fill:url(#SVGID_6_);enable-background:new    ;}
	.st7{opacity:0.55;fill:url(#SVGID_7_);enable-background:new    ;}
	.st8{opacity:0.55;fill:url(#SVGID_8_);enable-background:new    ;}
	.st9{opacity:0.55;fill:url(#SVGID_9_);enable-background:new    ;}
	.st10{opacity:0.55;fill:url(#SVGID_10_);enable-background:new    ;}
	.st11{opacity:0.55;fill:url(#SVGID_11_);enable-background:new    ;}
	.st12{opacity:0.55;fill:url(#SVGID_12_);enable-background:new    ;}
	.st13{opacity:0.55;fill:url(#SVGID_13_);enable-background:new    ;}
	.st14{opacity:0.55;fill:url(#SVGID_14_);enable-background:new    ;}
	.st15{opacity:0.55;fill:url(#SVGID_15_);enable-background:new    ;}
	.st16{opacity:0.55;fill:url(#SVGID_16_);enable-background:new    ;}
	.st17{opacity:0.55;fill:url(#SVGID_17_);enable-background:new    ;}
	.st18{opacity:0.55;fill:url(#SVGID_18_);enable-background:new    ;}
	.st19{opacity:0.55;fill:#242424;enable-background:new    ;}
	.st20{opacity:0.55;fill:url(#SVGID_19_);enable-background:new    ;}
	.st21{opacity:0.55;fill:url(#SVGID_20_);enable-background:new    ;}
	.st22{opacity:0.55;fill:url(#SVGID_21_);enable-background:new    ;}
	.st23{opacity:0.55;fill:url(#SVGID_22_);enable-background:new    ;}
	.st24{opacity:0.55;fill:url(#SVGID_23_);enable-background:new    ;}
</style>
<linearGradient id="SVGID_1_" gradientUnits="userSpaceOnUse" x1="6044.0537" y1="3578.6304" x2="6379.0737" y2="2658.1699" gradientTransform="matrix(-1 0 0 -1 6838.0005 4088.5513)">
	<stop  offset="0.3352" style="stop-color:#000000"/>
	<stop  offset="0.5319" style="stop-color:#050505"/>
	<stop  offset="0.769" style="stop-color:#141414"/>
	<stop  offset="0.8436" style="stop-color:#1A1A1A"/>
</linearGradient>
<polygon class="st0" points="828,522.3 623.7,1303.8 354.1,1392.2 "/>
<linearGradient id="SVGID_2_" gradientUnits="userSpaceOnUse" x1="6353.7803" y1="3117.1719" x2="6647.6812" y2="2309.686" gradientTransform="matrix(-1 0 0 -1 6838.0005 4088.5513)">
	<stop  offset="0.1564" style="stop-color:#000000"/>
	<stop  offset="0.2186" style="stop-color:#0B0B0B"/>
	<stop  offset="0.4388" style="stop-color:#2D2D2D"/>
	<stop  offset="0.6482" style="stop-color:#454545"/>
	<stop  offset="0.8406" style="stop-color:#545454"/>
	<stop  offset="1" style="stop-color:#595959"/>
</linearGradient>
<polygon class="st1" points="566.8,1001.4 317.3,1182.7 107.7,1748.8 354.1,1392.2 "/>
<polygon class="st2" points="828,522.3 566.8,1001.4 317.3,1182.7 1.3,473.9 467.8,667.7 "/>
<linearGradient id="SVGID_3_" gradientUnits="userSpaceOnUse" x1="6583.2871" y1="3522.3569" x2="6774.1045" y2="2998.0908" gradientTransform="matrix(-1 0 0 -1 6838.0005 4088.5513)">
	<stop  offset="0" style="stop-color:#595959"/>
	<stop  offset="0.1594" style="stop-color:#545454"/>
	<stop  offset="0.3518" style="stop-color:#454545"/>
	<stop  offset="0.5612" style="stop-color:#2D2D2D"/>
	<stop  offset="0.7814" style="stop-color:#0B0B0B"/>
	<stop  offset="0.8436" style="stop-color:#000000"/>
</linearGradient>
<polygon class="st3" points="317.3,1182.7 70.8,1077.3 1.3,474 "/>
<linearGradient id="SVGID_4_" gradientUnits="userSpaceOnUse" x1="6473.1348" y1="3361.4622" x2="6838.5742" y2="3994.4214" gradientTransform="matrix(-1 0 0 -1 6838.0005 4088.5513)">
	<stop  offset="0" style="stop-color:#1E1E1E"/>
	<stop  offset="0.946" style="stop-color:#565656"/>
	<stop  offset="1" style="stop-color:#595959"/>
</linearGradient>
<polygon class="st4" points="467.8,667.6 162.5,0 1.3,474 "/>
<linearGradient id="SVGID_5_" gradientUnits="userSpaceOnUse" x1="6014.7754" y1="3563.4885" x2="6407.3242" y2="4243.4033" gradientTransform="matrix(-1 0 0 -1 6838.0005 4088.5513)">
	<stop  offset="0" style="stop-color:#595959"/>
	<stop  offset="0.4827" style="stop-color:#909090"/>
	<stop  offset="1" style="stop-color:#C8C8C8"/>
</linearGradient>
<polygon class="st5" points="957.8,0.1 162.5,0 467.8,667.6 828,522.3 "/>
<linearGradient id="SVGID_6_" gradientUnits="userSpaceOnUse" x1="5773.1768" y1="3666.2834" x2="5982.7266" y2="4029.2346" gradientTransform="matrix(-1 0 0 -1 6838.0005 4088.5513)">
	<stop  offset="0" style="stop-color:#595959"/>
	<stop  offset="0.4827" style="stop-color:#909090"/>
	<stop  offset="1" style="stop-color:#C8C8C8"/>
</linearGradient>
<polygon class="st6" points="957.8,0.1 1115.7,0.1 1239.7,321.3 828,522.3 "/>
<linearGradient id="SVGID_7_" gradientUnits="userSpaceOnUse" x1="6011.5898" y1="2784.7729" x2="6011.5898" y2="3319.8264" gradientTransform="matrix(-1 0 0 -1 6838.0005 4088.5513)">
	<stop  offset="0" style="stop-color:#6E6E6E"/>
	<stop  offset="0.2192" style="stop-color:#575757"/>
	<stop  offset="0.4838" style="stop-color:#434343"/>
	<stop  offset="0.7457" style="stop-color:#363636"/>
	<stop  offset="1" style="stop-color:#323232"/>
</linearGradient>
<polygon class="st7" points="1029.1,1080.4 623.7,1303.8 763.8,768.7 "/>
<linearGradient id="SVGID_8_" gradientUnits="userSpaceOnUse" x1="5514.6919" y1="3120.1758" x2="5631.1084" y2="3232.5979" gradientTransform="matrix(-1 0 0 -1 6838.0005 4088.5513)">
	<stop  offset="0" style="stop-color:#8C8C8C"/>
	<stop  offset="0.7074" style="stop-color:#545454"/>
	<stop  offset="1" style="stop-color:#3C3C3C"/>
</linearGradient>
<polygon class="st8" points="1371.4,685.6 1437.7,849.9 1071.2,1054.1 "/>
<linearGradient id="SVGID_9_" gradientUnits="userSpaceOnUse" x1="6044.0537" y1="2998.8689" x2="6379.0737" y2="2078.4084" gradientTransform="matrix(-1 0 0 1 6838.0005 798.1752)">
	<stop  offset="0.3352" style="stop-color:#000000"/>
	<stop  offset="0.5319" style="stop-color:#050505"/>
	<stop  offset="0.769" style="stop-color:#141414"/>
	<stop  offset="0.8436" style="stop-color:#1A1A1A"/>
</linearGradient>
<polygon class="st9" points="828,3784.7 623.7,3003.2 354.1,2914.7 "/>
<linearGradient id="SVGID_10_" gradientUnits="userSpaceOnUse" x1="6353.7803" y1="2537.4104" x2="6647.6812" y2="1729.9246" gradientTransform="matrix(-1 0 0 1 6838.0005 798.1752)">
	<stop  offset="0.1564" style="stop-color:#000000"/>
	<stop  offset="0.2186" style="stop-color:#0B0B0B"/>
	<stop  offset="0.4388" style="stop-color:#2D2D2D"/>
	<stop  offset="0.6482" style="stop-color:#454545"/>
	<stop  offset="0.8406" style="stop-color:#545454"/>
	<stop  offset="1" style="stop-color:#595959"/>
</linearGradient>
<polygon class="st10" points="566.8,3305.5 317.3,3124.3 107.7,2558.2 354.1,2914.7 "/>
<polygon class="st2" points="828,3784.7 566.8,3305.5 317.3,3124.3 1.3,3833.1 467.8,3639.2 "/>
<linearGradient id="SVGID_11_" gradientUnits="userSpaceOnUse" x1="6583.2871" y1="2942.5955" x2="6774.1045" y2="2418.3293" gradientTransform="matrix(-1 0 0 1 6838.0005 798.1752)">
	<stop  offset="0" style="stop-color:#595959"/>
	<stop  offset="0.1594" style="stop-color:#545454"/>
	<stop  offset="0.3518" style="stop-color:#454545"/>
	<stop  offset="0.5612" style="stop-color:#2D2D2D"/>
	<stop  offset="0.7814" style="stop-color:#0B0B0B"/>
	<stop  offset="0.8436" style="stop-color:#000000"/>
</linearGradient>
<polygon class="st11" points="317.3,3124.3 70.8,3229.7 1.3,3833 "/>
<linearGradient id="SVGID_12_" gradientUnits="userSpaceOnUse" x1="6473.1348" y1="2781.7007" x2="6838.5742" y2="3414.6599" gradientTransform="matrix(-1 0 0 1 6838.0005 798.1752)">
	<stop  offset="0" style="stop-color:#1E1E1E"/>
	<stop  offset="0.946" style="stop-color:#565656"/>
	<stop  offset="1" style="stop-color:#595959"/>
</linearGradient>
<polygon class="st12" points="467.8,3639.3 162.5,4307 1.3,3833 "/>
<linearGradient id="SVGID_13_" gradientUnits="userSpaceOnUse" x1="6014.7754" y1="2983.7271" x2="6407.3242" y2="3663.6421" gradientTransform="matrix(-1 0 0 1 6838.0005 798.1752)">
	<stop  offset="0" style="stop-color:#595959"/>
	<stop  offset="0.4827" style="stop-color:#909090"/>
	<stop  offset="1" style="stop-color:#C8C8C8"/>
</linearGradient>
<polygon class="st13" points="957.8,4306.9 162.5,4307 467.8,3639.3 828,3784.7 "/>
<linearGradient id="SVGID_14_" gradientUnits="userSpaceOnUse" x1="5773.1763" y1="3086.522" x2="5982.7266" y2="3449.4731" gradientTransform="matrix(-1 0 0 1 6838.0005 798.1752)">
	<stop  offset="0" style="stop-color:#595959"/>
	<stop  offset="0.4827" style="stop-color:#909090"/>
	<stop  offset="1" style="stop-color:#C8C8C8"/>
</linearGradient>
<polygon class="st14" points="957.8,4306.9 1115.7,4306.9 1239.7,3985.7 828,3784.7 "/>
<linearGradient id="SVGID_15_" gradientUnits="userSpaceOnUse" x1="6011.5898" y1="2205.0115" x2="6011.5898" y2="2740.0649" gradientTransform="matrix(-1 0 0 1 6838.0005 798.1752)">
	<stop  offset="0" style="stop-color:#6E6E6E"/>
	<stop  offset="0.2192" style="stop-color:#575757"/>
	<stop  offset="0.4838" style="stop-color:#434343"/>
	<stop  offset="0.7457" style="stop-color:#363636"/>
	<stop  offset="1" style="stop-color:#323232"/>
</linearGradient>
<polygon class="st15" points="1029.1,3226.5 623.7,3003.2 763.8,3538.2 "/>
<linearGradient id="SVGID_16_" gradientUnits="userSpaceOnUse" x1="5514.6919" y1="2540.4143" x2="5631.1084" y2="2652.8364" gradientTransform="matrix(-1 0 0 1 6838.0005 798.1752)">
	<stop  offset="0" style="stop-color:#8C8C8C"/>
	<stop  offset="0.7074" style="stop-color:#545454"/>
	<stop  offset="1" style="stop-color:#3C3C3C"/>
</linearGradient>
<polygon class="st16" points="1371.4,3621.3 1437.7,3457.1 1071.2,3252.9 "/>
<linearGradient id="SVGID_17_" gradientUnits="userSpaceOnUse" x1="2106.3452" y1="1135.6609" x2="159.3492" y2="2769.3845" gradientTransform="matrix(1 0 0 -1 0 4088.5513)">
	<stop  offset="0" style="stop-color:#595959"/>
	<stop  offset="5.398064e-02" style="stop-color:#565656"/>
	<stop  offset="1" style="stop-color:#1E1E1E"/>
</linearGradient>
<polygon class="st17" points="1920,2153.5 1437.7,849.9 1071.6,1054.1 1371.4,685.6 1239.7,321.3 828,522.3 623.7,1303.8 
	817.2,2153.5 817.2,2153.5 623.7,3003.2 828,3784.7 1239.7,3985.7 1371.4,3621.3 1071.6,3252.9 1437.7,3457.1 "/>
<linearGradient id="SVGID_18_" gradientUnits="userSpaceOnUse" x1="3952.5747" y1="3872.3342" x2="4142.8999" y2="4201.9878" gradientTransform="matrix(-1 0 0 -1 5455.2427 4088.5513)">
	<stop  offset="0" style="stop-color:#595959"/>
	<stop  offset="5.398064e-02" style="stop-color:#565656"/>
	<stop  offset="1" style="stop-color:#1E1E1E"/>
</linearGradient>
<polygon class="st18" points="1115.7,0.1 1239.7,321.3 1684,111.5 1701.5,0.1 "/>
<polygon class="st19" points="1920,0 1701.2,0.5 1684,111.5 "/>
<polygon class="st2" points="1920,0 1239.7,321.3 1371.4,685.6 "/>
<linearGradient id="SVGID_19_" gradientUnits="userSpaceOnUse" x1="3776.3901" y1="1935.0687" x2="3776.3901" y2="4088.5513" gradientTransform="matrix(-1 0 0 -1 5455.2427 4088.5513)">
	<stop  offset="0.6425" style="stop-color:#000000"/>
	<stop  offset="0.7808" style="stop-color:#050505"/>
	<stop  offset="0.9475" style="stop-color:#141414"/>
	<stop  offset="1" style="stop-color:#1A1A1A"/>
</linearGradient>
<polygon class="st20" points="1920,2153.5 1437.7,849.9 1546.2,789.9 1627.6,365.4 1920,0 "/>
<linearGradient id="SVGID_20_" gradientUnits="userSpaceOnUse" x1="3827.6736" y1="3480.8901" x2="4083.8801" y2="3480.8901" gradientTransform="matrix(-1 0 0 -1 5455.2427 4088.5513)">
	<stop  offset="0" style="stop-color:#1E1E1E"/>
	<stop  offset="0.946" style="stop-color:#565656"/>
	<stop  offset="1" style="stop-color:#595959"/>
</linearGradient>
<path class="st21" d="M1627.6,365.4l-256.2,320.2l66.3,164.3c0,0,108.5-59.9,108.5-60S1627.6,365.4,1627.6,365.4z"/>
<linearGradient id="SVGID_21_" gradientUnits="userSpaceOnUse" x1="3952.5747" y1="-1272.985" x2="4142.9004" y2="-943.3318" gradientTransform="matrix(-1 0 0 1 5455.2427 5363.7329)">
	<stop  offset="0" style="stop-color:#595959"/>
	<stop  offset="5.398064e-02" style="stop-color:#565656"/>
	<stop  offset="1" style="stop-color:#1E1E1E"/>
</linearGradient>
<polygon class="st22" points="1115.7,4306.9 1239.7,3985.7 1684,4195.4 1701.5,4306.9 "/>
<polygon class="st19" points="1920,4307 1701.2,4306.4 1684,4195.4 "/>
<polygon class="st2" points="1920,4307 1239.7,3985.7 1371.4,3621.3 "/>
<linearGradient id="SVGID_22_" gradientUnits="userSpaceOnUse" x1="3776.3901" y1="-3210.2505" x2="3776.3901" y2="-1056.7681" gradientTransform="matrix(-1 0 0 1 5455.2427 5363.7329)">
	<stop  offset="0.6425" style="stop-color:#000000"/>
	<stop  offset="0.7808" style="stop-color:#050505"/>
	<stop  offset="0.9475" style="stop-color:#141414"/>
	<stop  offset="1" style="stop-color:#1A1A1A"/>
</linearGradient>
<polygon class="st23" points="1920,2153.5 1437.7,3457.1 1546.2,3517.1 1627.6,3941.6 1920,4307 "/>
<linearGradient id="SVGID_23_" gradientUnits="userSpaceOnUse" x1="3827.6736" y1="-1664.4292" x2="4083.8801" y2="-1664.4292" gradientTransform="matrix(-1 0 0 1 5455.2427 5363.7329)">
	<stop  offset="0" style="stop-color:#1E1E1E"/>
	<stop  offset="0.946" style="stop-color:#565656"/>
	<stop  offset="1" style="stop-color:#595959"/>
</linearGradient>
<path class="st24" d="M1627.6,3941.6l-256.2-320.2l66.3-164.3c0,0,108.5,59.9,108.5,60C1546.2,3517.2,1627.6,3941.6,1627.6,3941.6z"
	/>
</svg>
