<?xml version="1.0" encoding="utf-8"?>
<!-- Generator: Adobe Illustrator 24.3.0, SVG Export Plug-In . SVG Version: 6.00 Build 0)  -->
<svg version="1.1" id="Ebene_1" xmlns="http://www.w3.org/2000/svg" xmlns:xlink="http://www.w3.org/1999/xlink" x="0px" y="0px"
	 viewBox="0 0 280 70" style="enable-background:new 0 0 280 70;" xml:space="preserve">
<style type="text/css">
	.st0{fill:none;}
	.st1{fill:none;stroke:#000000;stroke-width:0;stroke-linecap:round;stroke-linejoin:round;}
	.st2{fill:#FFFFFF;}
	.st3{fill:#EDC338;}
</style>
<g>
	<path class="st0" d="M202,35.6c-1-1.1-2.4-1.7-4.3-1.7c-1.8,0-3.2,0.6-4.3,1.9c-1,1.2-1.7,2.8-2.1,4.9c0,0.2,0.1,0.3,0.3,0.3h11.8
		c0.2,0,0.3-0.1,0.3-0.3v-0.2c0,0,0,0,0,0C203.6,38.4,203,36.7,202,35.6z"/>
	<path class="st0" d="M226.1,34c-2.1,0-3.7,0.8-4.9,2.5c-1.1,1.7-1.7,4.2-1.7,7.6c0,3,0.6,5.3,1.7,6.9c1.1,1.7,2.8,2.5,4.9,2.5
		c2.6,0,4.6-1.2,5.8-3.5c0,0,0-0.1,0-0.1V37.6c0-0.1,0-0.1,0-0.1C230.7,35.2,228.7,34,226.1,34z"/>
	<path class="st0" d="M139.9,40.2H135c-0.2,0-0.3-0.1-0.3-0.3c0,0,0,0,0,0v-4.4c0,0,0,0,0,0c0-0.2,0.1-0.3,0.3-0.3h3.4
		c2.1,0,3.8-0.5,5-1.4c1.2-1,1.8-2.1,1.8-3.9c0-1.9-0.6-3.1-1.7-4c-1.1-0.9-2.8-1.3-5.2-1.3H132c-0.2,0-0.3,0.1-0.3,0.3v1.9v8.5v5.6
		v7.7v3.9c0,0.2,0.1,0.3,0.3,0.3h7.3c2.1,0,3.8-0.5,5-1.6c1.2-1.1,1.8-2.5,1.8-4.4C146.1,42.8,144,40.3,139.9,40.2z"/>
	<path class="st0" d="M169.1,34c-2.6,0-4.6,1.1-5.7,3.2c0,0,0,0.1,0,0.2v12.8c0,0.1,0,0.1,0,0.2c1.2,2.2,3.1,3.3,5.8,3.3
		c2.1,0,3.7-0.8,4.9-2.5c1.2-1.7,1.8-4.2,1.8-7.6c0-2.9-0.6-5.2-1.7-6.9C173,34.9,171.3,34,169.1,34z"/>
	<path class="st0" d="M103.8,24.6h-4.5c-0.2,0-0.3,0.1-0.3,0.3v27.7c0,0.2,0.1,0.3,0.3,0.3h4.1c3.6,0,6.3-1.1,8.2-3.4
		c1.9-2.2,2.9-5.4,2.9-9.6v-2.2c0-4.3-0.9-7.5-2.8-9.7C110,25.7,107.3,24.6,103.8,24.6z"/>
	<path class="st0" d="M271.1,44.6h-3.2c-2.4,0-4.2,0.4-5.5,1.3c-1.2,0.8-1.8,2-1.8,3.6c0,1.3,0.4,2.3,1.3,3c0.8,0.7,2,1.1,3.4,1.1
		c1.3,0,2.5-0.3,3.6-0.9c1.1-0.6,2-1.4,2.5-2.5c0,0,0-0.1,0-0.2v-5.1C271.4,44.8,271.2,44.6,271.1,44.6z"/>
	<line class="st1" x1="16.5" y1="52.9" x2="16.5" y2="52.9"/>
	<polyline class="st1" points="16.6,52.9 16.5,52.9 16.5,52.9 	"/>
	<path class="st2" d="M37.1,60.2c-5-6.6-13.2-7.4-19.7-7.4c-0.3,0-12.3,0-12.3,0c0,1,0.2,2,0.8,2.9c0.9,1.4,2.5,2.4,3.7,2.4
		c1.2,0.1,6,0,6,0c8.9,0,16,0.6,19.2,8.5l0.7,1.6h3.2l0.7-1.6c3.2-7.9,10.3-8.5,19.2-8.5c0,0,4.8,0.1,6,0c1.2-0.1,2.9-1,3.7-2.4
		c0.6-0.9,0.8-1.9,0.8-2.9c0,0-12,0-12.3,0C50.3,52.9,42.1,53.6,37.1,60.2z"/>
	<path class="st3" d="M76.1,25.9c-0.5-3.6-3.9-6.1-7.5-5.5c-3.6,0.5-6.1,3.9-5.5,7.5c0.3,1.8,1.2,3.3,2.5,4.3
		c-1.7,2.1-3.7,4-6.1,5.5c0,0,0,0,0,0c-0.8-1-2.1-1.5-3.4-1.3c-2,0.3-3.4,2.2-3.1,4.2c-3.4,0.9-6.9,1.1-10.4,0.5c0-0.3,0-0.6,0-0.8
		c-0.1-0.4-0.2-0.8-0.4-1.2c2.8-2.5,5-5.5,6.4-8.8c0.4,0.1,0.8,0.1,1.3,0c2.3-0.3,3.9-2.5,3.5-4.7c-0.2-1.6-1.3-2.8-2.7-3.3
		c0.3-2.6,0.1-5.2-0.4-7.8c2.7-1.4,4.4-4.4,4-7.6c-0.6-4-4.3-6.7-8.3-6.1s-6.7,4.3-6.1,8.3c0.6,4,4.3,6.7,8.3,6.1
		c0.2,0,0.5-0.1,0.7-0.1c0.5,2.3,0.6,4.7,0.4,7c-0.2,0-0.4,0-0.5,0c-2.3,0.3-3.9,2.5-3.5,4.7c0.2,1.3,1,2.4,2,3
		c-1.4,3-3.3,5.8-5.9,8.1c-0.5-0.5-1.1-0.8-1.8-0.9c-0.2-4.1-1.4-8.1-3.6-11.8c0.5-0.6,0.7-1.3,0.6-2.1c-0.2-1.5-1.6-2.5-3-2.3
		c-0.2,0-0.4,0.1-0.6,0.2c-2.6-2.9-5.8-5.1-9.5-6.6c0.1-0.5,0.1-0.9,0-1.4c-0.4-2.8-3-4.7-5.8-4.3c-2.8,0.4-4.7,3-4.3,5.8
		c0.4,2.8,3,4.7,5.8,4.3c1.8-0.3,3.2-1.4,3.9-2.9c3.3,1.4,6.3,3.4,8.7,6.1c-0.3,0.5-0.5,1.2-0.4,1.9c0.2,1.5,1.6,2.5,3,2.3
		c0.1,0,0.2,0,0.3-0.1c2,3.4,3.1,7.1,3.3,10.9c-0.7,0.1-1.3,0.4-1.9,0.8c-3.6-2.6-7.8-4.1-12-4.6c-0.3-0.9-1.2-1.5-2.2-1.3
		c-0.7,0.1-1.3,0.6-1.5,1.2c-4.5,0.1-9,1.4-13,4c0,0,0,0,0,0c-0.8-0.7-1.9-1-3-0.9c-2,0.3-3.4,2.2-3.1,4.2c0.3,2,2.2,3.4,4.2,3.1
		c2-0.3,3.4-2.2,3.1-4.2c-0.1-0.4-0.2-0.7-0.3-1c3.8-2.4,7.9-3.6,12.1-3.7c0.3,0.8,1.2,1.3,2.1,1.2c0.6-0.1,1.2-0.5,1.5-1
		c4,0.5,7.8,1.9,11.1,4.3c-0.4,0.8-0.6,1.7-0.5,2.6c0.3,2.2,2.4,3.8,4.7,3.5c1.4-0.2,2.5-1.1,3.1-2.3c1.5,0.3,3,0.4,4.5,0.4
		c2.3,0,4.6-0.3,6.9-0.9c0.8,1.2,2.2,1.9,3.7,1.7c2-0.3,3.4-2.2,3.1-4.2c0-0.2-0.1-0.3-0.1-0.5c0,0,0.1-0.1,0.1-0.1
		c2.6-1.6,4.8-3.7,6.6-6c1.1,0.5,2.3,0.7,3.6,0.5C74.2,32.8,76.7,29.5,76.1,25.9z"/>
	<path class="st2" d="M113,21.4c-2.7-1.5-5.8-2.3-9.2-2.3H92.5c-0.2,0-0.3,0.1-0.3,0.3V58c0,0.2,0.1,0.3,0.3,0.3h11
		c3.5,0,6.7-0.8,9.4-2.3c2.7-1.5,4.8-3.7,6.3-6.5c1.5-2.8,2.2-6.1,2.2-9.8v-2c0-3.7-0.7-6.9-2.2-9.7C117.8,25.2,115.7,23,113,21.4z
		 M114.6,39.9c0,4.2-1,7.4-2.9,9.6c-1.9,2.2-4.7,3.4-8.2,3.4h-4.1c-0.2,0-0.3-0.1-0.3-0.3V24.9c0-0.2,0.1-0.3,0.3-0.3h4.5
		c3.5,0,6.2,1.1,8,3.4c1.8,2.2,2.8,5.5,2.8,9.7V39.9z"/>
	<path class="st2" d="M171,28.7c-3,0-5.5,1-7.4,3c-0.2,0.2-0.5,0.1-0.5-0.2l-0.2-2c0-0.2-0.1-0.3-0.3-0.3h-5.4
		c-0.2,0-0.3,0.1-0.3,0.3v39.7c0,0.2,0.1,0.3,0.3,0.3h5.9c0.2,0,0.3-5.8,0.3-5.9v-7.1c0-0.3,0.3-0.4,0.5-0.2
		c1.9,1.7,4.2,2.6,7.2,2.6c3.4,0,6.2-1.3,8.2-4c2-2.7,3.1-6.3,3.1-10.8v-0.4c0-4.7-1-8.4-3-11C177.3,30,174.5,28.7,171,28.7z
		 M174.1,51.1c-1.2,1.7-2.8,2.5-4.9,2.5c-2.7,0-4.6-1.1-5.8-3.3c0,0,0-0.1,0-0.2V37.4c0-0.1,0-0.1,0-0.2c1.2-2.2,3.1-3.2,5.7-3.2
		c2.2,0,3.8,0.9,5,2.6c1.2,1.7,1.7,4,1.7,6.9C175.8,46.9,175.3,49.4,174.1,51.1z"/>
	<path class="st2" d="M197.8,28.7c-2.5,0-4.8,0.6-6.8,1.9c-2,1.3-3.6,3.1-4.7,5.3c-1.1,2.3-1.7,4.9-1.7,7.8v0.8
		c0,4.3,1.3,7.8,3.9,10.4c2.6,2.6,5.9,3.9,10.1,3.9c2.4,0,4.6-0.5,6.6-1.4c1.9-0.9,3.4-2.2,4.5-3.8c0.1-0.1,0.1-0.3,0-0.4l-3.1-3
		c-0.1-0.1-0.3-0.1-0.4,0c-1.9,2.3-4.2,3.4-7.1,3.4c-2.1,0-3.9-0.7-5.3-2.1c-1.3-1.3-2.1-3.1-2.4-5.4c0-0.2,0.1-0.3,0.3-0.3h18.4
		c0.2,0,0.3-0.1,0.3-0.3v-2.3c0-4.6-1.1-8.2-3.2-10.7C204.8,29.9,201.7,28.7,197.8,28.7z M203.7,40.7c0,0.2-0.1,0.3-0.3,0.3h-11.8
		c-0.2,0-0.3-0.2-0.3-0.3c0.3-2.1,1-3.7,2.1-4.9c1.1-1.3,2.6-1.9,4.3-1.9c1.8,0,3.2,0.6,4.3,1.7c1,1.1,1.6,2.8,1.7,4.9c0,0,0,0,0,0
		V40.7z"/>
	<path class="st2" d="M249.7,29.2h-5.9c-0.2,0-0.3,0.1-0.3,0.3V58c0,0.2,0.1,0.3,0.3,0.3h5.9c0.2,0,0.3-0.1,0.3-0.3V29.5
		C250,29.3,249.9,29.2,249.7,29.2z"/>
	<path class="st2" d="M279,57.8c-0.7-1.6-1.1-3.6-1.1-6.2V38.4c-0.1-3.1-1.1-5.5-3.1-7.2c-2-1.7-4.7-2.6-8.2-2.6
		c-2.2,0-4.3,0.4-6.1,1.2c-1.8,0.8-3.3,1.9-4.3,3.3c-1,1.3-1.5,2.7-1.6,4.2c0,0.2,0.1,0.3,0.3,0.3h5.9c0.2,0,0.3-0.1,0.3-0.3
		c0.1-1,0.5-1.9,1.4-2.6c1-0.7,2.2-1.1,3.7-1.1c1.7,0,3,0.5,3.8,1.4c0.8,0.9,1.3,2.1,1.3,3.6v1.6c0,0.2-0.1,0.3-0.3,0.3h-3.7
		c-4.3,0-7.6,0.8-9.9,2.5c-2.3,1.7-3.5,4-3.5,7.1c0,2.5,0.9,4.5,2.8,6.2c1.8,1.7,4.2,2.5,7.2,2.5c2.8,0,5.2-1,7.2-2.9
		c0.2-0.2,0.5-0.1,0.5,0.2c0.2,0.9,0.4,1.5,0.6,2c0,0.1,0.2,0.2,0.3,0.2l6.1,0c0.2,0,0.4-0.2,0.4-0.4C279,57.9,279,57.8,279,57.8z
		 M271.4,50c0,0.1,0,0.1,0,0.2c-0.6,1-1.4,1.8-2.5,2.5c-1.1,0.6-2.4,0.9-3.6,0.9c-1.4,0-2.5-0.4-3.4-1.1c-0.8-0.7-1.3-1.7-1.3-3
		c0-1.5,0.6-2.7,1.8-3.6c1.2-0.8,3-1.3,5.5-1.3h3.2c0.2,0,0.3,0.1,0.3,0.3V50z"/>
	<circle class="st3" cx="246.8" cy="21.8" r="3.3"/>
	<path class="st2" d="M238.2,17C238.1,17,238.1,17,238.2,17c-3.5,0-6.2,2.8-6.2,6.2v8c0,0.3-0.3,0.4-0.5,0.2c-1.8-1.8-4.2-2.7-7-2.7
		c-3.5,0-6.3,1.4-8.4,4.1c-2.1,2.7-3.1,6.3-3.1,10.8c0,4.7,1.1,8.4,3.2,11.2c2.1,2.7,4.9,4.1,8.3,4.1c3,0,5.5-1,7.4-3
		c0.2-0.2,0.5-0.1,0.5,0.2l0.2,2.1c0,0.2,0.1,0.3,0.3,0.3h5.3c0.2,0,0.3-0.1,0.3-0.3V29.3V17.3C238.4,17.1,238.3,17,238.2,17z
		 M231.9,49.9c0,0.1,0,0.1,0,0.1c-1.2,2.3-3.2,3.5-5.8,3.5c-2.1,0-3.7-0.8-4.9-2.5c-1.1-1.7-1.7-4-1.7-6.9c0-3.4,0.6-5.9,1.7-7.6
		c1.1-1.7,2.8-2.5,4.9-2.5c2.6,0,4.6,1.1,5.8,3.4c0,0,0,0.1,0,0.1V49.9z"/>
	<path class="st2" d="M147,37.7c-0.3-0.1-0.3-0.4,0-0.6c1.5-0.8,2.7-1.8,3.5-3c1-1.4,1.5-2.9,1.5-4.6c0-3.5-1.2-6-3.5-7.7
		c-2.3-1.8-5.7-2.7-10.1-2.7h-13.1c-0.2,0-0.3,0.1-0.3,0.3V58c0,0.2,0.1,0.3,0.3,0.3h14c4.4,0,7.8-1,10.1-3c2.4-2,3.5-4.8,3.5-8.5
		c0-2.2-0.6-4.5-1.7-6.1C150.1,39.4,148.7,38.4,147,37.7z M144.3,51.3c-1.2,1.1-2.9,1.6-5,1.6H132c-0.2,0-0.3-0.1-0.3-0.3v-3.9v-7.7
		v-5.6v-8.5v-1.9c0-0.2,0.1-0.3,0.3-0.3h6.3c2.3,0,4.1,0.4,5.2,1.3c1.1,0.9,1.7,2.1,1.7,4c0,1.8-0.6,2.9-1.8,3.9
		c-1.2,1-2.8,1.4-5,1.4H135c-0.2,0-0.3,0.1-0.3,0.3c0,0,0,0,0,0v4.4c0,0,0,0,0,0c0,0.2,0.1,0.3,0.3,0.3h4.8c4.2,0.1,6.2,2.6,6.2,6.6
		C146.1,48.8,145.5,50.2,144.3,51.3z"/>
</g>
</svg>
